HIERARCHY
ROOT Hips
{
	OFFSET 0.00 0.00 0.00
	CHANNELS 6 Xposition Yposition Zposition Xrotation Yrotation Zrotation
	JOINT RightUpLeg
	{
		OFFSET -3.76699 0.00000 0.00000
		CHANNELS 3 Xrotation Yrotation Zrotation
		JOINT RightLeg
		{
			OFFSET 0.00000 -18.01768 0.00000
			CHANNELS 3 Xrotation Yrotation Zrotation
			JOINT RightFoot
			{
				OFFSET 0.00000 -16.88108 0.00000
				CHANNELS 3 Xrotation Yrotation Zrotation
				JOINT RightToeBase
				{
					OFFSET 0.00000 -1.49359 5.57418
					CHANNELS 3 Xrotation Yrotation Zrotation
					End Site
					{
						OFFSET 0.00000 0.00000 2.95275
					}
				}
			}
		}
	}
	JOINT LeftUpLeg
	{
		OFFSET 3.76699 0.00000 0.00000
		CHANNELS 3 Xrotation Yrotation Zrotation
		JOINT LeftLeg
		{
			OFFSET 0.00000 -18.01768 0.00000
			CHANNELS 3 Xrotation Yrotation Zrotation
			JOINT LeftFoot
			{
				OFFSET 0.00000 -16.88108 0.00000
				CHANNELS 3 Xrotation Yrotation Zrotation
				JOINT LeftToeBase
				{
					OFFSET 0.00000 -1.49359 5.57418
					CHANNELS 3 Xrotation Yrotation Zrotation
					End Site
					{
						OFFSET 0.00000 0.00000 2.95275
					}
				}
			}
		}
	}
	JOINT Spine
	{
		OFFSET 0.00000 7.77970 0.00000
		CHANNELS 3 Xrotation Yrotation Zrotation
		JOINT RightShoulder
		{
			OFFSET 0.00000 10.94176 0.00000
			CHANNELS 3 Xrotation Yrotation Zrotation
			JOINT RightArm
			{
				OFFSET -7.70894 0.00000 0.00000
				CHANNELS 3 Xrotation Yrotation Zrotation
				JOINT RightForeArm
				{
					OFFSET -11.52135 0.00000 0.00000
					CHANNELS 3 Yrotation Zrotation Xrotation
					JOINT RightHand
					{
						OFFSET -10.17590 0.00000 0.00000
						CHANNELS 3 Xrotation Yrotation Zrotation
						End Site
						{
							OFFSET -3.93700 0.00000 0.00000
						}
						JOINT RightHandThumb1
						{
							OFFSET 0.00000 0.00000 0.00000
							CHANNELS 3 Xrotation Zrotation Yrotation
							End Site
							{
								OFFSET 0.00000 0.00000 3.93700
							}
						}
					}
				}
			}
		}
		JOINT LeftShoulder
		{
			OFFSET 0.00000 10.94176 0.00000
			CHANNELS 3 Xrotation Yrotation Zrotation
			JOINT LeftArm
			{
				OFFSET 7.70894 0.00000 0.00000
				CHANNELS 3 Xrotation Yrotation Zrotation
				JOINT LeftForeArm
				{
					OFFSET 11.52135 0.00000 0.00000
					CHANNELS 3 Yrotation Zrotation Xrotation
					JOINT LeftHand
					{
						OFFSET 10.17590 0.00000 0.00000
						CHANNELS 3 Xrotation Yrotation Zrotation
						End Site
						{
							OFFSET 3.93700 0.00000 0.00000
						}
						JOINT LeftHandThumb1
						{
							OFFSET 0.00000 0.00000 0.00000
							CHANNELS 3 Xrotation Zrotation Yrotation
							End Site
							{
								OFFSET 0.00000 0.00000 3.93700
							}
						}
					}
				}
			}
		}
		JOINT Head
		{
			OFFSET 0.00000 16.64604 0.00000
			CHANNELS 3 Xrotation Yrotation Zrotation
			End Site
			{
				OFFSET 0.00000 4.52755 0.00000
			}
		}
	}
}
MOTION
Frames:	22
Frame Time: 0.008333
-3.2578 36.8998 5.2619 -3.6741 4.4300 -0.9625 9.2385 -0.8257 -7.9649 -1.5945 0.0000 -0.0000 -3.0533 -12.4809 19.0978 7.5847 -0.0000 -0.0000 10.3874 1.9215 7.5740 -3.9279 0.0000 -0.0000 -6.8024 21.0772 -11.8143 11.7794 -0.0000 -0.0000 10.1837 11.0087 2.5607 57.8897 -17.4857 7.7064 -29.5886 78.4715 89.4067 49.1607 -0.0000 38.0037 0.5180 -2.6231 11.1759 33.1476 -0.0000 -26.2537 41.0778 5.9024 7.2020 -1.9670 -66.3586 -75.0713 -45.2919 -0.0000 -13.6215 -1.9837 -6.8801 -16.1266 32.8623 0.0000 24.3270 10.4638 -19.6588 0.2570
-3.2582 36.9041 5.2555 -3.4706 4.4771 -0.9570 9.0213 -0.8485 -7.9759 -1.5682 0.0000 -0.0000 -3.0443 -12.5197 19.0840 7.6106 -0.0000 -0.0000 10.1703 1.8779 7.5586 -3.9347 0.0000 -0.0000 -6.7449 21.0879 -11.8669 11.7633 -0.0000 -0.0000 9.9600 11.0681 2.5530 57.7431 -17.9135 7.9068 -31.8160 77.8383 92.0138 48.1421 -0.0000 38.1135 0.4816 -2.4595 11.0824 33.1476 -0.0000 -26.2537 40.8294 6.4172 6.9796 -3.1397 -65.9893 -76.4401 -44.5036 0.0000 -12.9767 -1.9580 -6.6422 -16.4654 32.8623 0.0000 24.3270 10.1504 -19.7965 0.1114
-3.2612 36.9080 5.2545 -3.3403 4.5219 -0.9761 8.8874 -0.8516 -7.9525 -1.5406 0.0000 -0.0000 -3.0361 -12.5614 19.0787 7.6124 -0.0000 -0.0000 10.0039 1.9166 7.5767 -3.9019 0.0000 -0.0000 -6.7162 21.0105 -11.8816 11.7396 -0.0000 -0.0000 9.8085 11.0697 2.5730 57.5970 -18.3048 8.0300 -34.0237 77.1306 94.6042 47.0234 -0.0000 38.2111 0.4465 -2.2705 11.1293 33.1476 -0.0000 -26.2537 40.6055 6.9861 6.7344 -4.4042 -65.5639 -77.9171 -43.7294 0.0000 -12.0979 -1.9324 -6.3726 -16.9082 32.8623 0.0000 24.3270 9.8552 -19.8008 -0.0123
-3.2632 36.9136 5.2507 -3.1659 4.5653 -0.9840 8.6977 -0.8681 -7.9462 -1.5080 0.0000 -0.0000 -3.0096 -12.6020 19.0988 7.6372 -0.0000 -0.0000 9.8221 1.8867 7.5808 -3.9135 0.0000 -0.0000 -6.6551 21.0004 -11.9446 11.7564 -0.0000 -0.0000 9.6142 10.9672 2.5601 57.4511 -18.6577 8.1180 -35.9877 76.4683 96.9433 45.8688 0.0000 38.2778 0.4030 -2.1059 10.8359 33.1476 -0.0000 -26.2537 40.3468 7.6758 6.4379 -5.6750 -64.9987 -79.4985 -42.9011 0.0000 -11.1385 -1.8684 -6.0431 -17.2158 32.8623 0.0000 24.3270 9.5603 -19.7131 -0.0899
-3.2646 36.9194 5.2451 -2.9864 4.5859 -1.0150 8.4904 -0.8287 -7.9226 -1.4503 0.0000 -0.0000 -2.9853 -12.6575 19.0890 7.6187 -0.0000 -0.0000 9.6109 1.9412 7.5964 -3.8987 0.0000 -0.0000 -6.6016 20.9271 -11.9381 11.7237 -0.0000 -0.0000 9.4097 10.8645 2.5935 57.3151 -19.0735 8.1596 -37.9114 75.7663 99.2167 44.6907 0.0000 38.6737 0.4130 -2.0747 11.2623 33.1476 -0.0000 -26.2537 40.1296 8.4204 6.0953 -6.9931 -64.3492 -81.0920 -42.0062 0.0000 -10.1639 -1.8161 -5.7440 -17.5785 32.8623 0.0000 24.3270 9.2387 -19.7212 -0.3070
-3.2638 36.9252 5.2405 -2.8060 4.5942 -1.0318 8.2875 -0.8136 -7.9168 -1.4135 0.0000 -0.0000 -2.9486 -12.6899 19.0871 7.6220 -0.0000 -0.0000 9.4379 1.9257 7.5950 -3.9282 0.0000 -0.0000 -6.5421 20.9868 -12.0074 11.7224 -0.0000 -0.0000 9.2103 10.8178 2.6184 57.2283 -19.6028 8.3170 -39.7536 75.2060 101.3741 43.5030 0.0000 39.2343 0.4171 -2.1569 10.9469 33.1476 -0.0000 -26.2537 39.8719 9.1740 5.7464 -8.1221 -63.7572 -82.5276 -41.1220 0.0000 -9.0120 -1.7552 -5.5080 -17.7061 32.8623 0.0000 24.3270 8.8948 -19.7229 -0.4906
-3.2636 36.9317 5.2343 -2.5814 4.5954 -1.0478 8.0259 -0.7865 -7.9159 -1.3519 0.0000 -0.0000 -2.9166 -12.7220 19.0874 7.5598 -0.0000 -0.0000 9.1769 1.9877 7.5866 -3.8992 0.0000 -0.0000 -6.4918 20.9119 -12.0052 11.6834 -0.0000 -0.0000 8.9396 10.9259 2.6262 57.0614 -20.1789 8.5601 -41.0512 74.4989 103.1791 42.3139 0.0000 40.1191 0.3818 -1.9235 11.2290 33.1476 -0.0000 -26.2537 39.6109 9.8917 5.4825 -9.2316 -63.0399 -83.9338 -40.1388 -0.0000 -8.0192 -1.6818 -5.0659 -18.3923 32.8623 0.0000 24.3270 8.6103 -19.8928 -0.5832
-3.2653 36.9379 5.2310 -2.3759 4.6180 -1.0735 7.8003 -0.7683 -7.8971 -1.3085 0.0000 -0.0000 -2.8886 -12.7732 19.0922 7.5499 -0.0000 -0.0000 8.9642 1.9954 7.5993 -3.9092 0.0000 -0.0000 -6.4278 20.9119 -12.0617 11.6877 -0.0000 -0.0000 8.6701 10.9627 2.6611 56.9870 -20.7474 8.7560 -42.3325 73.7162 104.9179 41.0774 0.0000 40.8717 0.1602 -0.9508 9.5662 33.1476 -0.0000 -26.2537 39.3064 10.6606 5.1819 -10.0917 -62.2998 -85.1493 -39.1953 0.0000 -7.2461 -1.6774 -4.8929 -18.9491 32.8623 0.0000 24.3270 8.3763 -20.0023 -0.6989
-3.2679 36.9437 5.2297 -2.1871 4.6559 -1.0936 7.6098 -0.7534 -7.8805 -1.2881 0.0000 -0.0000 -2.8565 -12.8307 19.0955 7.5539 -0.0000 -0.0000 8.7877 1.9585 7.6117 -3.9486 0.0000 -0.0000 -6.3598 20.9312 -12.1133 11.7018 -0.0000 -0.0000 8.4111 10.9926 2.6766 56.8396 -21.2411 8.8981 -42.8957 72.7887 106.1001 40.0141 -0.0000 41.9269 0.1031 -0.6563 8.9299 33.1476 -0.0000 -26.2537 38.9751 11.4204 4.9172 -10.8015 -61.4188 -86.2991 -38.3034 0.0000 -6.3978 -1.7117 -4.8386 -19.5088 32.8623 0.0000 24.3270 8.1642 -20.1815 -0.7801
-3.2738 36.9491 5.2341 -2.0196 4.7075 -1.1251 7.4643 -0.7745 -7.8406 -1.3034 0.0000 -0.0000 -2.8098 -12.8738 19.0758 7.5618 -0.0000 -0.0000 8.6348 1.9452 7.6446 -3.9928 0.0000 -0.0000 -6.2851 20.8846 -12.1265 11.6606 -0.0000 -0.0000 8.1491 11.0903 2.6987 56.8147 -21.7107 9.1190 -43.1187 71.7437 106.9244 38.9871 0.0000 42.9579 0.0758 -0.5220 8.2634 33.1476 -0.0000 -26.2537 38.6197 12.1204 4.7043 -11.2267 -60.4516 -87.2258 -37.5395 -0.0000 -5.4643 -1.7396 -4.7356 -20.1968 32.8623 0.0000 24.3270 8.0321 -20.3986 -0.7987
-3.2742 36.9545 5.2352 -1.8354 4.6959 -1.1453 7.2764 -0.7489 -7.8348 -1.2917 0.0000 -0.0000 -2.7754 -12.8908 19.0988 7.5934 -0.0000 -0.0000 8.4449 2.0144 7.6418 -3.9962 0.0000 -0.0000 -6.2380 20.8433 -12.1473 11.6380 -0.0000 -0.0000 7.8565 11.2561 2.7075 56.7560 -22.1570 9.3064 -43.1679 70.6957 107.6272 37.9428 0.0000 44.0228 -0.0131 0.1056 7.0863 33.1476 -0.0000 -26.2537 38.1933 12.7910 4.5555 -11.5265 -59.5244 -88.1299 -36.8117 0.0000 -4.5301 -1.7515 -4.6221 -20.7802 32.8623 0.0000 24.3270 7.9376 -20.6893 -0.8291
-3.2728 36.9588 5.2353 -1.6309 4.7111 -1.1648 7.0787 -0.7454 -7.8309 -1.2947 0.0000 -0.0000 -2.7346 -12.9214 19.1304 7.6187 -0.0000 -0.0000 8.2583 1.9979 7.6439 -4.0329 0.0000 -0.0000 -6.1849 20.8689 -12.1980 11.6390 -0.0000 -0.0000 7.5580 11.3364 2.7264 56.6381 -22.5922 9.4608 -43.0421 69.6848 108.1760 36.8875 0.0000 45.0308 -0.0808 0.7387 6.2420 33.1476 -0.0000 -26.2537 37.8658 13.5457 4.3460 -11.7974 -58.6150 -88.9249 -36.1463 0.0000 -3.5540 -1.7692 -4.5507 -21.2712 32.8623 0.0000 24.3270 7.7772 -20.9015 -0.8995
-3.2749 36.9628 5.2367 -1.4489 4.7398 -1.1916 6.9038 -0.7546 -7.8121 -1.2894 0.0000 -0.0000 -2.7126 -12.9440 19.1632 7.6320 -0.0000 -0.0000 8.0580 2.0373 7.6603 -4.0197 0.0000 -0.0000 -6.1496 20.8118 -12.2304 11.5958 -0.0000 -0.0000 7.2750 11.4833 2.7669 56.5351 -23.1160 9.6605 -43.1528 68.7240 108.9601 35.6985 0.0000 45.9258 -0.0972 1.1153 4.9804 33.1476 -0.0000 -26.2537 37.5032 14.2297 4.2135 -11.9536 -57.6337 -89.6249 -35.4618 0.0000 -2.9652 -1.7539 -4.2888 -22.2675 32.8623 0.0000 24.3270 7.6390 -21.1309 -0.9910
-3.2780 36.9659 5.2364 -1.2765 4.7902 -1.1931 6.7620 -0.8068 -7.8093 -1.3385 0.0000 -0.0000 -2.6772 -12.9580 19.1318 7.6361 -0.0000 -0.0000 7.8879 2.0183 7.6568 -4.0495 0.0000 -0.0000 -6.0866 20.7914 -12.2695 11.6220 -0.0000 -0.0000 7.0250 11.6066 2.7714 56.4242 -23.6497 9.9013 -43.3301 67.8563 109.7539 34.4918 0.0000 46.9504 -0.1482 1.8515 4.5765 33.1476 -0.0000 -26.2537 37.1013 14.9091 4.1176 -12.0786 -56.8255 -90.3064 -34.7305 0.0000 -2.1855 -1.7798 -4.2167 -22.9085 32.8623 0.0000 24.3270 7.4531 -21.3892 -1.1225
-3.2839 36.9685 5.2453 -1.1624 4.8527 -1.1971 6.7013 -0.9289 -7.7874 -1.4172 0.0000 -0.0000 -2.6398 -12.9325 19.0885 7.6312 -0.0000 -0.0000 7.7568 2.0427 7.6686 -4.0284 0.0000 -0.0000 -6.0464 20.6912 -12.2971 11.5585 -0.0000 -0.0000 6.8390 11.7410 2.7757 56.2821 -24.1904 10.1404 -43.4052 66.9932 110.4874 33.3296 0.0000 47.8059 -0.2132 2.8809 4.2338 33.1476 -0.0000 -26.2537 36.7591 15.5514 4.0397 -12.2002 -56.0962 -90.9395 -33.9717 -0.0000 -1.2154 -1.7706 -4.1195 -23.2826 32.8623 0.0000 24.3270 7.2396 -21.6137 -1.2493
-3.2902 36.9710 5.2513 -1.0239 4.9187 -1.2065 6.6067 -0.9497 -7.7722 -1.4558 0.0000 -0.0000 -2.6187 -12.9879 19.1169 7.6277 -0.0000 -0.0000 7.6220 2.0301 7.6879 -4.0448 0.0000 -0.0000 -5.9969 20.6532 -12.3712 11.5756 -0.0000 -0.0000 6.6411 11.9072 2.7907 56.2459 -24.7398 10.4563 -43.5368 66.2222 111.1692 32.1812 0.0000 48.7616 -0.2106 3.2495 3.7102 33.1476 -0.0000 -26.2537 36.4146 16.1130 3.9583 -12.2104 -55.3865 -91.4384 -33.1624 0.0000 -0.5169 -1.7777 -4.0411 -23.7690 32.8623 0.0000 24.3270 6.9681 -21.8999 -1.4199
-3.2861 36.9737 5.2504 -0.8715 4.8715 -1.2138 6.4456 -0.9167 -7.7917 -1.4540 0.0000 -0.0000 -2.5950 -12.9736 19.1532 7.6841 -0.0000 -0.0000 7.4736 2.1025 7.6654 -4.0553 0.0000 -0.0000 -5.9831 20.6746 -12.4108 11.7012 -0.0000 -0.0000 6.4337 12.1833 2.8467 56.2069 -25.2616 10.7165 -43.4258 65.3614 111.6181 31.1184 -0.0000 49.6437 -0.2314 3.6556 3.6237 33.1476 -0.0000 -26.2537 36.2405 16.5930 3.7787 -12.1975 -54.5248 -91.8320 -32.3704 0.0000 -0.0236 -1.8167 -4.0435 -24.2184 32.8623 0.0000 24.3270 6.6719 -22.1108 -1.6615
-3.2819 36.9766 5.2467 -0.7018 4.8057 -1.2044 6.2586 -0.8529 -7.8315 -1.4448 0.0000 -0.0000 -2.5537 -12.9388 19.1575 7.5191 -0.0000 -0.0000 7.2998 2.1856 7.6177 -4.0539 0.0000 -0.0000 -5.9481 20.6324 -12.3637 11.5392 -0.0000 -0.0000 6.2213 12.4101 2.8738 56.2070 -25.6380 10.9212 -43.0926 64.3920 111.8212 30.1488 0.0000 50.1803 -0.2124 3.9384 3.0900 33.1476 -0.0000 -26.2537 36.1019 17.0350 3.5500 -12.0612 -53.7588 -92.0861 -31.6858 0.0000 0.7523 -1.7855 -3.9456 -24.3723 32.8623 0.0000 24.3270 6.3620 -22.3441 -1.9259
-3.2864 36.9774 5.2492 -0.5713 4.8082 -1.2250 6.1408 -0.8990 -7.8083 -1.4725 0.0000 -0.0000 -2.5635 -12.9542 19.1719 7.6503 -0.0000 -0.0000 7.1724 2.2229 7.6307 -4.0690 0.0000 -0.0000 -5.9289 20.6079 -12.3554 11.5421 -0.0000 -0.0000 6.0488 12.5931 2.9024 56.1666 -25.9494 11.1382 -42.5948 63.4076 111.8978 29.1062 -0.0000 50.7378 -0.2246 4.4458 2.8955 33.1476 -0.0000 -26.2537 35.9169 17.3973 3.3896 -11.8174 -52.9797 -92.2815 -30.9787 0.0000 1.3880 -1.7960 -3.9010 -24.7450 32.8623 0.0000 24.3270 6.0833 -22.5690 -2.0900
-3.2869 36.9774 5.2558 -0.4656 4.7933 -1.2248 6.0471 -0.8689 -7.8204 -1.4727 0.0000 -0.0000 -2.5499 -12.9320 19.1309 7.5016 -0.0000 -0.0000 7.0738 2.2731 7.6225 -4.0653 0.0000 -0.0000 -5.9353 20.5871 -12.3917 11.5872 -0.0000 -0.0000 5.9013 12.8385 2.9025 56.1485 -26.2420 11.3798 -42.0020 62.4631 111.8797 28.1311 0.0000 51.3194 -0.2372 4.8831 2.7846 33.1476 -0.0000 -26.2537 35.6820 17.7019 3.2848 -11.3975 -52.2065 -92.3588 -30.3646 -0.0000 2.0609 -1.8518 -3.9747 -25.0064 32.8623 0.0000 24.3270 5.8400 -22.8461 -2.1963
-3.2853 36.9773 5.2602 -0.3400 4.7750 -1.2192 5.9286 -0.9199 -7.8367 -1.4940 0.0000 -0.0000 -2.5611 -12.8991 19.1783 7.6159 -0.0000 -0.0000 6.9637 2.3063 7.6010 -4.0877 0.0000 -0.0000 -5.9240 20.5846 -12.4125 11.5909 -0.0000 -0.0000 5.7367 13.0314 2.9111 56.0613 -26.5109 11.5229 -41.4279 61.6407 111.9200 27.1146 -0.0000 52.2881 -0.2063 5.5128 2.1462 33.1476 -0.0000 -26.2537 35.5103 18.0170 3.1210 -10.9800 -51.5043 -92.3883 -29.7575 -0.0000 2.6761 -1.8272 -3.8730 -25.2816 32.8623 0.0000 24.3270 5.5895 -23.0257 -2.3227
-3.2854 36.9771 5.2649 -0.2190 4.7525 -1.2232 5.8180 -0.8550 -7.8499 -1.4938 0.0000 -0.0000 -2.5639 -12.9319 19.2029 7.6383 -0.0000 -0.0000 6.8546 2.3409 7.5935 -4.0941 0.0000 -0.0000 -5.9137 20.5954 -12.4329 11.6043 -0.0000 -0.0000 5.5578 13.2086 2.9327 56.0064 -26.7514 11.6411 -40.9196 60.9653 111.9512 26.2241 0.0000 53.1264 -0.1821 6.0604 1.7240 33.1476 -0.0000 -26.2537 35.3399 18.2776 2.9904 -10.5477 -50.8001 -92.4365 -29.1236 -0.0000 3.2284 -1.7490 -3.6021 -25.9206 32.8623 0.0000 24.3270 5.4053 -23.1463 -2.4213
